<svg width="102" height="40" viewBox="0 0 102 40" fill="none" xmlns="http://www.w3.org/2000/svg">
<g clip-path="url(#clip0_49_1832)">
<path d="M45.3613 11.0367H45.9326C46.6383 11.0367 47.1217 10.9625 47.3854 10.8168C47.6466 10.6687 47.7785 10.4143 47.7785 10.0536C47.7785 9.67897 47.6564 9.41746 47.4098 9.26478C47.1656 9.11466 46.687 9.03825 45.9766 9.03825H45.3613V11.0367ZM73.2998 23.5287C74.0776 23.5287 74.7084 24.0681 74.7084 24.7333C74.7084 25.3983 74.0776 25.9378 73.2998 25.9378C72.522 25.9378 71.8912 25.3983 71.8912 24.7333C71.8912 24.0681 72.522 23.5287 73.2998 23.5287ZM42.71 16.9894V7.06787H45.5836C46.7652 7.06787 47.5905 7.10487 48.0616 7.17658C48.5304 7.2483 48.9333 7.37322 49.2726 7.54881C49.6584 7.75227 49.9539 8.02531 50.1565 8.36523C50.3592 8.70744 50.4592 9.10071 50.4592 9.54934C50.4592 10.1136 50.3079 10.5624 50.0051 10.8954C49.7025 11.2261 49.2189 11.4782 48.5547 11.6516C49.2971 11.705 49.8806 11.9523 50.2981 12.3915C50.718 12.8335 50.928 13.4208 50.928 14.1586C50.928 14.6859 50.8108 15.1507 50.574 15.5531C50.3395 15.9556 50.0002 16.2675 49.5632 16.4875C49.2067 16.6679 48.7647 16.7974 48.2423 16.8738C47.7173 16.9502 46.8604 16.9894 45.6689 16.9894H42.71ZM45.3613 14.9635H46.3623C47.0386 14.9635 47.5173 14.8825 47.798 14.7229C48.0788 14.5609 48.2179 14.2927 48.2179 13.9181C48.2179 13.5018 48.0886 13.2126 47.8321 13.0462C47.5758 12.882 47.0997 12.7987 46.4063 12.7987H45.3613V14.9635ZM57.4492 12.6879C57.4005 12.2993 57.2442 11.987 56.9806 11.7511C56.7145 11.5152 56.3896 11.3972 56.0015 11.3972C55.5865 11.3972 55.2544 11.5036 55.0077 11.7186C54.7636 11.9338 54.6001 12.2575 54.517 12.6879H57.4492ZM59.9543 14.0476H54.461C54.4658 14.5749 54.6098 14.982 54.8905 15.2687C55.1739 15.5555 55.5724 15.6754 56.0871 15.6988C56.7395 15.7283 57.6212 15.2348 57.6623 14.4902L59.9112 14.4993C59.8395 16.1075 57.9813 17.2531 56.231 17.2531C54.9712 17.2531 53.8138 16.9222 53.0546 16.2608C52.2929 15.5972 51.912 14.7252 51.912 13.6405C51.912 12.5744 52.2924 11.6878 53.0521 10.9833C53.8131 10.2775 54.9225 9.78218 56.0844 9.78218C57.281 9.78218 58.3722 10.2824 59.0631 10.9971C59.7541 11.7118 59.9543 12.6902 59.9543 13.932V14.0476ZM61.4166 16.9894L61.4177 9.84973L63.7518 9.8453L63.7508 10.8277C64.0878 10.2703 64.4789 10.1466 64.9228 9.88848C65.3638 9.63204 65.8969 9.78218 66.5146 9.78218C66.9834 9.78218 67.3992 9.85309 67.7623 9.9949C68.1264 10.137 68.4244 10.3418 68.6511 10.6101C68.8441 10.8388 68.9785 11.2655 69.0587 11.5938C69.1394 11.9244 69.1808 12.4171 69.1808 13.0716V16.9894H66.632V13.3238C66.632 12.7757 66.5366 12.3801 66.3486 12.1304C66.1607 11.883 65.8603 11.7581 65.4452 11.7581C64.9154 11.7581 64.5296 11.9432 64.2856 12.3131C64.0438 12.6831 63.9217 13.2844 63.9217 14.117V16.9894H61.4166ZM76.4859 13.548C76.4859 13.0207 76.3368 12.6068 76.0389 12.306C75.741 12.0055 75.3309 11.855 74.8061 11.855C74.2762 11.855 73.8611 12.0055 73.5584 12.306C73.2557 12.6068 73.1043 13.0207 73.1043 13.548C73.1043 14.0706 73.2557 14.4847 73.5584 14.7876C73.8611 15.0907 74.2762 15.2409 74.8061 15.2409C75.326 15.2409 75.7362 15.0907 76.0365 14.7876C76.3344 14.4847 76.4859 14.0706 76.4859 13.548ZM78.7295 10.0041V17.5502C78.7295 19.7429 76.6398 21.0037 74.4984 21.0037C72.5413 21.0037 70.8483 19.5657 70.9398 17.6141L73.4625 17.6734C73.4509 18.3151 73.7145 18.8439 74.6864 18.8513C75.9892 18.8611 76.2782 18.0807 76.2782 17.1617V15.8377C76.0122 16.2675 75.6703 16.5892 75.2552 16.7997C74.0237 17.4242 72.3607 17.1318 71.4782 16.1336C70.9019 15.4815 70.6139 14.6096 70.6139 13.5203C70.6139 12.4218 70.9174 11.4038 71.5198 10.7558C72.1232 10.1064 72.9334 9.78218 73.954 9.78218C74.4935 9.78218 74.9578 9.88819 75.3529 10.1013C75.746 10.3134 76.0853 10.6471 76.371 11.1003V10.0041H78.7295ZM80.6656 16.9894V7.19012H83.1705V13.1363L85.7951 10.1484H88.957L85.7097 13.4393L89.2499 16.9894H85.8954L83.1705 13.9481V16.9894H80.6656ZM94.5016 12.6879C94.4528 12.2993 94.2965 11.987 94.0329 11.7511C93.7668 11.5152 93.442 11.3972 93.0539 11.3972C92.6388 11.3972 92.3067 11.5036 92.0601 11.7186C91.8159 11.9338 91.6523 12.2575 91.5693 12.6879H94.5016ZM97.0066 14.0476H91.5134C91.518 14.5749 91.6622 14.982 91.9429 15.2687C92.2261 15.5555 92.624 15.6988 93.1393 15.6988C94.2248 15.6988 94.7586 15.0867 94.7829 14.4551L96.9976 14.4447C96.9255 16.0295 95.1454 17.2531 93.2834 17.2531C92.0236 17.2531 91.0128 16.9223 90.2534 16.2608C89.4916 15.5971 89.1108 14.7252 89.1108 13.6405C89.1108 12.5744 89.4911 11.5437 90.2509 10.8391C91.0121 10.1332 91.9747 9.78218 93.1368 9.78218C94.3333 9.78218 95.2782 10.1383 95.969 10.8529C96.8018 11.7145 97.0066 12.9329 97.0066 14.0476ZM98.5424 16.9894V7.19012H101.091V16.9894H98.5424ZM42.71 33.636V23.7147H45.5372V28.222L48.8479 23.7147H52.1733L48.3059 28.5528L52.5101 33.636H48.948L45.5372 29.1841V33.636H42.71ZM58.43 30.0876C58.43 29.3221 57.7682 28.301 56.7754 28.301C55.757 28.301 55.1203 29.3046 55.1203 30.0876C55.1203 30.9011 55.6572 32.0138 56.7754 32.0138C57.8504 32.0138 58.43 30.8576 58.43 30.0876ZM60.8185 30.2318C60.8185 30.7244 60.716 31.1939 60.5133 31.6357C60.3106 32.0798 60.0177 32.4774 59.6295 32.8289C59.2389 33.1805 58.8019 33.4487 58.3184 33.6292C57.8326 33.8097 57.3198 33.8998 56.7754 33.8998C56.2212 33.8998 55.7035 33.8097 55.2202 33.6292C54.7341 33.4487 54.3023 33.1805 53.9213 32.8289C53.5379 32.4845 53.2474 32.0912 53.0472 31.6471C52.847 31.2009 52.7469 30.7291 52.7469 30.2318C52.7469 29.7324 52.8467 29.1161 53.0448 28.6722C53.2419 28.2304 53.5345 27.8337 53.9213 27.4789C54.2983 27.1332 54.7274 26.8686 55.2128 26.6926C55.6962 26.5173 56.2164 26.4289 56.7754 26.4289C57.3346 26.4289 57.8548 26.5169 58.3356 26.6926C58.8162 26.8682 59.249 27.132 59.6295 27.4789C60.0224 27.837 60.3182 28.2374 60.5183 28.6792C60.7184 29.1207 60.8185 29.7369 60.8185 30.2318ZM67.6548 30.2225C67.6548 29.6907 67.6517 29.2703 67.3545 28.9622C67.0586 28.6552 66.6514 28.5019 66.1386 28.5019C65.6235 28.5019 65.2182 28.6547 64.9228 28.9622C64.6273 29.2698 64.4809 29.6907 64.4809 30.2225C64.4809 30.7591 64.6273 31.18 64.9204 31.4853C65.2133 31.7905 65.6185 31.9432 66.1386 31.9432C66.6514 31.9432 67.0586 31.79 67.3545 31.4831C67.6517 31.1749 67.6548 30.7546 67.6548 30.2225ZM70.0622 23.8369V33.636H67.7158V32.5259C67.391 32.9863 67.0274 33.3308 66.6221 33.5574C66.2168 33.7864 65.7676 33.8998 65.2718 33.8998C64.2563 33.8998 63.4482 33.5668 62.8475 32.9031C62.2469 32.2393 61.9465 31.3442 61.9465 30.2203C61.9465 29.1311 62.2469 28.2499 62.845 27.5791C63.4432 26.9087 64.2221 26.5732 65.184 26.5732C65.7944 26.5732 66.2925 26.6772 66.6758 26.8855C67.0592 27.0935 67.401 27.4426 67.7012 27.9307C67.6719 27.7688 67.652 27.5833 67.6378 27.378C67.6237 27.1726 67.6158 26.9478 67.6158 26.7096V23.8369H70.0622ZM72.0276 33.636L72.0415 26.5697H74.5624L74.5764 33.636H72.0276ZM76.5247 33.636V26.6509H78.8588V28.0385C79.0806 27.2847 79.9877 26.4289 81.6225 26.4289C82.0915 26.4289 82.507 26.5 82.8703 26.6418C83.2343 26.784 83.5326 26.9886 83.759 27.2566C83.952 27.4856 84.0866 27.7677 84.1667 28.0964C84.2474 28.4268 84.2889 29.064 84.2889 29.7184V33.636H81.7398V29.9708C81.7398 29.4225 81.6446 29.0269 81.4566 28.7773C81.2687 28.5298 80.9683 28.4048 80.5533 28.4048C80.0234 28.4048 79.6377 28.5901 79.3935 28.9599C79.1519 29.3298 79.0297 29.9311 79.0297 30.7638V33.636H76.5247ZM91.4473 30.1948C91.4473 29.6675 91.4448 29.2534 91.1469 28.9529C90.8492 28.6524 90.439 28.5019 89.9139 28.5019C89.3842 28.5019 88.9692 28.6524 88.6665 28.9529C88.3636 29.2536 88.2123 29.6675 88.2123 30.1948C88.2123 30.7174 88.3636 31.1315 88.6665 31.4344C88.9692 31.7374 89.3842 31.8877 89.9139 31.8877C90.434 31.8877 90.845 31.738 91.1446 31.4344C91.4431 31.132 91.4473 30.7174 91.4473 30.1948ZM93.8376 26.6509L93.8118 34.272C93.8042 36.4991 91.9561 37.5286 89.7751 37.5061C87.5779 37.4835 86.1135 35.9468 86.0479 34.3349L88.6028 34.3865C88.7227 35.0393 89.1044 35.5093 89.7944 35.4981C91.0898 35.477 91.3862 34.8657 91.3862 33.7863V32.4845C91.1201 32.9146 90.7783 33.236 90.3633 33.4466C89.1315 34.0707 87.4689 33.7789 86.5863 32.7804C86.01 32.1283 85.7219 31.2564 85.7219 30.1671C85.7219 29.0686 86.0255 28.0504 86.6278 27.4025C87.2312 26.7532 88.0414 26.4289 89.062 26.4289C89.6016 26.4289 90.0658 26.5348 90.4609 26.7481C90.8542 26.9602 91.1934 27.4381 91.4791 27.8912V26.6509H93.8376Z" fill="black"/>
<path fill-rule="evenodd" clip-rule="evenodd" d="M7.46353 0.00366211C9.65807 0.00366211 11.4539 1.79931 11.4539 3.99402V4.81676C13.5499 3.97723 15.8376 3.51471 18.2334 3.51471C28.3093 3.51471 36.4774 11.6828 36.4774 21.7587C36.4774 31.8346 28.3093 40.0027 18.2334 40.0027C8.15737 40.0027 -0.0107422 31.8346 -0.0107422 21.7587C-0.0107422 17.7511 1.28239 14.0458 3.47301 11.036V3.99402C3.47301 1.79931 5.26883 0.00366211 7.46353 0.00366211Z" fill="#03026B"/>
<path fill-rule="evenodd" clip-rule="evenodd" d="M18.2331 8.25784C25.6894 8.25784 31.7337 14.3023 31.7337 21.7586C31.7337 29.215 25.6894 35.2595 18.2331 35.2595C10.7758 35.2595 4.64309 29.1432 4.73357 21.6622L4.73242 3.97587C4.73242 2.46351 5.96951 1.22656 7.48173 1.22656C8.99395 1.22656 10.2311 2.46351 10.2311 3.97587V10.8849C12.4704 9.23413 15.2375 8.25784 18.2331 8.25784Z" fill="white"/>
<path d="M18.2331 31.2459C23.4727 31.2459 27.7201 26.9984 27.7201 21.7588C27.7201 16.5192 23.4727 12.2717 18.2331 12.2717C12.9936 12.2717 8.74609 16.5192 8.74609 21.7588C8.74609 26.9984 12.9936 31.2459 18.2331 31.2459Z" fill="#03026B"/>
<path fill-rule="evenodd" clip-rule="evenodd" d="M16.0623 17.4395C16.4736 17.4395 16.8101 17.7677 16.8101 18.1692V21.3095C18.0714 20.0787 19.369 18.9096 20.6293 17.6927C20.916 17.4158 21.3837 17.417 21.6689 17.6953C21.9543 17.9738 21.9532 18.4277 21.6664 18.7047L18.4428 21.817L19.9497 23.3033L21.6239 24.9546C21.9075 25.2344 21.9063 25.6906 21.6211 25.9689C21.3357 26.2474 20.8707 26.2466 20.5868 25.9665C19.3477 24.7441 18.057 23.5658 16.8101 22.349V25.4667C16.8101 25.8682 16.4736 26.1966 16.0623 26.1966C15.651 26.1966 15.3145 25.8681 15.3145 25.4667V18.1692C15.3145 17.7677 15.6511 17.4395 16.0623 17.4395Z" fill="white"/>
</g>
<defs>
<clipPath id="clip0_49_1832">
<rect width="101.102" height="40" fill="white"/>
</clipPath>
</defs>
</svg>
